<svg width="250" height="250" viewBox="0 0 250 250" fill="none" xmlns="http://www.w3.org/2000/svg">
<path d="M125 250C194.036 250 250 194.036 250 125C250 55.9644 194.036 0 125 0C55.9644 0 0 55.9644 0 125C0 194.036 55.9644 250 125 250Z" fill="#01E3BB"/>
<path d="M55.3571 194.643C36.6071 175.893 26.7857 150.893 26.7857 126.786L124.107 223.214C99.1071 222.321 74.1071 213.393 55.3571 194.643ZM146.429 220.536L29.4643 103.571C39.2857 59.8214 78.5714 26.7856 125 26.7856C158.036 26.7856 186.607 42.8571 204.464 66.9642L191.071 78.5714C175.893 58.0356 151.786 44.6428 125 44.6428C90.1786 44.6428 60.7143 66.9642 49.1071 98.2142L151.786 200.893C177.679 191.964 197.321 169.643 203.571 142.857H160.714V125H223.214C223.214 171.428 190.179 210.714 146.429 220.536Z" fill="#333333"/>
</svg>
