<svg width="250" height="250" viewBox="0 0 250 250" fill="none" xmlns="http://www.w3.org/2000/svg">
<path d="M250 0H0V250H250V0Z" fill="#01E3BB"/>
<path d="M167.937 195.312C172.973 203.535 179.524 209.578 191.111 209.578C200.846 209.578 207.064 204.713 207.064 197.991C207.064 189.935 200.675 187.082 189.961 182.396L184.088 179.876C167.135 172.654 155.873 163.606 155.873 144.479C155.873 126.86 169.298 113.447 190.278 113.447C205.215 113.447 215.953 118.646 223.691 132.257L205.397 144.003C201.369 136.781 197.024 133.935 190.278 133.935C183.397 133.935 179.036 138.3 179.036 144.003C179.036 151.05 183.401 153.904 193.48 158.269L199.353 160.785C219.314 169.344 230.584 178.07 230.584 197.689C230.584 218.84 213.969 230.427 191.655 230.427C169.838 230.427 155.742 220.031 148.846 206.404L167.937 195.312ZM84.9488 197.348C88.6393 203.896 91.9964 209.431 100.068 209.431C107.786 209.431 112.655 206.412 112.655 194.669V114.789H136.147V194.987C136.147 219.312 121.885 230.384 101.068 230.384C82.2583 230.384 71.3655 220.65 65.8258 208.925L84.9488 197.348Z" fill="#333333"/>
</svg>
