<svg width="250" height="250" viewBox="0 0 250 250" fill="none" xmlns="http://www.w3.org/2000/svg">
<path d="M250 125.343C250 108.782 229.26 93.0868 197.462 83.3539C204.8 50.9446 201.539 25.1598 187.169 16.9046C183.857 14.9682 179.984 14.051 175.754 14.051V25.4146C178.098 25.4146 179.984 25.8732 181.563 26.7395C188.494 30.7142 191.5 45.8488 189.156 65.3147C188.596 70.1048 187.678 75.1496 186.557 80.2964C176.57 77.8504 165.664 75.9649 154.199 74.742C147.32 65.3147 140.185 56.7538 133 49.2629C149.613 33.8227 165.206 25.3636 175.805 25.3636V14C161.792 14 143.447 23.9878 124.898 41.3135C106.349 24.0897 88.0045 14.2038 73.991 14.2038V25.5675C84.5393 25.5675 100.183 33.9755 116.796 49.3139C109.662 56.8047 102.528 65.3147 95.7501 74.742C84.2336 75.9649 73.3286 77.8504 63.3408 80.3473C62.1688 75.2515 61.3025 70.3086 60.691 65.5695C58.296 46.1035 61.2515 30.969 68.1309 26.9433C69.6596 26.0261 71.647 25.6184 73.991 25.6184V14.2548C69.7106 14.2548 65.8377 15.172 62.4745 17.1084C48.1553 25.3636 44.945 51.0974 52.3339 83.4048C20.638 93.1888 0 108.833 0 125.343C0 141.905 20.7399 157.6 52.5377 167.333C45.1998 199.742 48.4611 225.527 62.8312 233.782C66.1435 235.718 70.0163 236.636 74.2968 236.636C88.3102 236.636 106.655 226.648 125.204 209.322C143.753 226.546 162.097 236.432 176.111 236.432C180.391 236.432 184.264 235.514 187.627 233.578C201.947 225.323 205.157 199.589 197.768 167.282C229.362 157.549 250 141.854 250 125.343ZM183.653 91.3543C181.767 97.9278 179.423 104.705 176.773 111.483C174.684 107.406 172.493 103.329 170.098 99.2528C167.754 95.1761 165.257 91.2014 162.76 87.3286C169.996 88.3987 176.977 89.7236 183.653 91.3543ZM160.314 145.625C156.339 152.504 152.263 159.027 148.033 165.091C140.44 165.753 132.746 166.11 125 166.11C117.305 166.11 109.611 165.753 102.069 165.141C97.8394 159.077 93.7118 152.606 89.7371 145.777C85.8642 139.102 82.3482 132.325 79.1378 125.496C82.2972 118.668 85.8643 111.839 89.6861 105.164C93.6608 98.2846 97.7375 91.7619 101.967 85.6979C109.56 85.0355 117.254 84.6788 125 84.6788C132.695 84.6788 140.389 85.0355 147.931 85.647C152.161 91.711 156.288 98.1826 160.263 105.011C164.136 111.687 167.652 118.464 170.862 125.292C167.652 132.121 164.136 138.949 160.314 145.625ZM176.773 139C179.525 145.828 181.869 152.657 183.806 159.281C177.13 160.912 170.098 162.288 162.811 163.358C165.308 159.434 167.805 155.408 170.149 151.281C172.493 147.204 174.684 143.077 176.773 139ZM125.102 193.372C120.363 188.48 115.624 183.028 110.936 177.066C115.522 177.269 120.21 177.422 124.949 177.422C129.739 177.422 134.478 177.32 139.115 177.066C134.529 183.028 129.79 188.48 125.102 193.372ZM87.1892 163.358C79.9531 162.288 72.9719 160.963 66.2964 159.332C68.1818 152.759 70.5259 145.981 73.1757 139.204C75.265 143.28 77.4562 147.357 79.8512 151.434C82.2462 155.51 84.6922 159.485 87.1892 163.358ZM124.847 57.3143C129.586 62.2063 134.325 67.6588 139.013 73.6209C134.427 73.417 129.739 73.2642 125 73.2642C120.21 73.2642 115.471 73.3661 110.834 73.6209C115.42 67.6588 120.159 62.2063 124.847 57.3143ZM87.1382 87.3286C84.6413 91.2523 82.1443 95.278 79.8002 99.4056C77.4562 103.482 75.265 107.559 73.1757 111.636C70.424 104.807 68.0799 97.9788 66.1435 91.3543C72.819 89.7746 79.8512 88.3987 87.1382 87.3286ZM41.0212 151.128C22.9821 143.433 11.3127 133.344 11.3127 125.343C11.3127 117.343 22.9821 107.202 41.0212 99.5585C45.4036 97.6731 50.1936 95.9914 55.1366 94.4117C58.0412 104.4 61.863 114.795 66.6021 125.445C61.914 136.044 58.1431 146.389 55.2895 156.326C50.2446 154.746 45.4546 153.013 41.0212 151.128ZM68.4366 223.947C61.5063 219.972 58.4998 204.838 60.8439 185.372C61.4044 180.582 62.3217 175.537 63.4427 170.39C73.4305 172.836 84.3355 174.722 95.8011 175.945C102.68 185.372 109.815 193.933 117 201.424C100.387 216.864 84.7941 225.323 74.1949 225.323C71.9018 225.272 69.9654 224.813 68.4366 223.947ZM189.309 185.117C191.704 204.583 188.748 219.718 181.869 223.743C180.34 224.66 178.353 225.068 176.009 225.068C165.461 225.068 149.817 216.66 133.204 201.322C140.338 193.831 147.472 185.321 154.25 175.894C165.766 174.671 176.671 172.785 186.659 170.288C187.831 175.435 188.748 180.378 189.309 185.117ZM208.928 151.128C204.545 153.013 199.755 154.695 194.812 156.275C191.908 146.287 188.086 135.892 183.347 125.241C188.035 114.642 191.806 104.298 194.66 94.3608C199.704 95.9405 204.494 97.6731 208.979 99.5585C227.018 107.253 238.687 117.343 238.687 125.343C238.636 133.344 226.967 143.484 208.928 151.128Z" fill="#01E3BB"/>
<path d="M124.949 148.631C137.811 148.631 148.237 138.205 148.237 125.343C148.237 112.482 137.811 102.055 124.949 102.055C112.088 102.055 101.661 112.482 101.661 125.343C101.661 138.205 112.088 148.631 124.949 148.631Z" fill="#01E3BB"/>
</svg>
